<svg preserveAspectRatio="xMidYMid meet" data-bbox="-0.001 0 208.093 254.25" viewBox="0 0 208.09 254.25" xmlns="http://www.w3.org/2000/svg" data-type="ugc" role="img"><g><g><path d="M132.24 247.46c0 3.75-24.74 6.79-55.26 6.79s-55.26-3-55.26-6.79 24.74-6.78 55.26-6.78 55.26 3.04 55.26 6.78z" opacity=".07"></path><path d="M199.32 247.46c0 3.75-13.74 6.79-30.69 6.79s-30.69-3-30.69-6.79 13.74-6.78 30.69-6.78 30.69 3.04 30.69 6.78z" opacity=".07"></path><path d="M172.84 134.18s9.51-4.34 4.9-10.61-10.19 2.67-10.19 2.67z" fill="#fddbbb"></path><path fill="#f5f5f5" d="M166.07 126.65l1.88-1.63 5.6 9.06-2.14 1.35-5.34-8.78z"></path><path d="M104 109.88s11.23 64.84 68.64 25.9l-6-10.54s-41.4 29.62-52.14-15.36z" fill="#424242"></path><path d="M166.64 137.64a1.11 1.11 0 0 0-1.41-1.72 1.11 1.11 0 1 0 1.41 1.72z" fill="#808080"></path><path d="M169.93 135.79a1.11 1.11 0 1 0-1.56-.15 1.11 1.11 0 0 0 1.56.15z" fill="#808080"></path><path d="M25.06 128.59S4.46 52 51.37 38.19C111.17 20.6 113.72 114 113.72 114z" fill="#fddbbb"></path><path d="M114.48 109.88l-8 1.33L86 152.05l-34.23-31.14-29.31 5.66c6.05 21.09 13.61 56.54 13.63 88.59l-5 31s28.45 6.23 23.81-3c-6.51-13-18.65-2.23-18.65-2.23l8.52-24.39 4.77-17.67c36.57 2.79 56.25-2.13 56.25-2.13l.69 19-6 31.34s33.05 6 22.36-6.86c-8.18-9.82-17.54 1.1-17.54 1.1l10.46-25.29c5.42-39.34 7.71-69.03-1.28-106.15z" fill="#424242"></path><path fill="#f5f5f5" d="M106.53 111.21l-20.54 40.85-34.22-31.15 54.76-9.7z"></path><path fill="#808080" d="M106.53 111.21l3.06 15.41-8.42 3.3 3.27 11.57-18.45 10.57 20.54-40.85z"></path><path fill="#808080" d="M85.99 152.06l-20.68-5.96-.81-8.68-9.78-1.73-2.95-14.78 34.22 31.15z"></path><path fill="#b35730" d="M88.81 122.12l-3.63-3.81-7.49 1.03-1.83 5.67 3.6 2.99-1.2 17.05 7.73 7.01 5.46-10.86-5.36-14.18 2.72-4.9z"></path><path d="M84.22 159.85A2.55 2.55 0 0 0 89 158a2.55 2.55 0 0 0-4.73 1.9z" fill="#808080"></path><path d="M85.12 170.26a2.55 2.55 0 1 0 1.42-3.26 2.54 2.54 0 0 0-1.42 3.26z" fill="#808080"></path><path d="M101 0s26.65 57-65.15 64.15l1.69 19.77s-9.13-5.92-9.73 3.13c-.69 10.44 8.6 4.37 8.6 4.37s-4.35 24.64-12 34.77c-1.41-1.28-45.52-84.26-5.05-86.27-.07-2.4 2.1-19 24.21-26.54C77 1.9 82.41 29.11 101 0z" fill="#4f423a"></path><path d="M58 80.24c.95 3.38.3 6.51-1.45 7s-3.9-1.85-4.85-5.24-.29-6.52 1.46-7 3.93 1.85 4.84 5.24z" fill="#4f423a"></path><path d="M95 69.55c1 3.38.29 6.52-1.45 7s-3.93-1.86-4.88-5.24-.29-6.52 1.46-7S94 66.17 95 69.55z" fill="#4f423a"></path><path d="M90.84 88.93c-3.9.65-16.89 3-25.42 7.24a1.41 1.41 0 0 0-.76 1.59c.77 3.28 4.17 12.55 17.59 9.1 13.25-3.39 11.25-13.54 10.15-17a1.4 1.4 0 0 0-1.56-.93z" fill="#eb7d86"></path><path d="M30.27 191.53s8.2 6.5 11.68-.46-7-7.86-7-7.86z" fill="#fddbbb"></path><path fill="#f5f5f5" d="M33.9 182.08l2.3.93-5.52 9.11-2.17-1.3 5.39-8.74z"></path><path d="M22.46 126.57s-54.5 32.06 6.29 65.49l6.65-10.13s-48.4-20.48-9.48-45.45z" fill="#424242"></path><path d="M24.37 187.58a1.11 1.11 0 1 0-.57-1.46 1.11 1.11 0 0 0 .57 1.46z" fill="#808080"></path><path d="M27.51 189.67a1.11 1.11 0 1 0-.57-1.46 1.1 1.1 0 0 0 .57 1.46z" fill="#808080"></path><path d="M196.18 44.13a24.2 24.2 0 0 0-7.94-16.81A23.41 23.41 0 0 0 155 29a24.62 24.62 0 0 0-6.21 17.51 24.2 24.2 0 0 0 7.93 16.71A23.19 23.19 0 0 0 190 61.55a23.79 23.79 0 0 0 6.18-17.42z" fill="none"></path><path d="M199 68.86a35.09 35.09 0 0 0-2.49-49.62 35.82 35.82 0 0 0-26-9.21 34.65 34.65 0 0 0-24.34 11.74 35.37 35.37 0 0 0 20.63 58.45l5.13 102.12 13.94-.7-5.12-102A36.1 36.1 0 0 0 199 68.86zm-25.53.59a23.16 23.16 0 0 1-16.79-6.23 24.2 24.2 0 0 1-7.93-16.71A24.62 24.62 0 0 1 155 29a23.41 23.41 0 0 1 33.29-1.68 24.2 24.2 0 0 1 7.94 16.81A23.79 23.79 0 0 1 190 61.55a23.39 23.39 0 0 1-16.54 7.9z" fill="#fbb03b"></path><path d="M172.63 196.29l2.27 45.12c.15 2.93 3.43 5.89 7.28 5.7s6.81-3.47 6.66-6.4l-2.27-45.12z" fill="#fbb03b"></path><path d="M186.18 181.63h-.31l-13.94.7h-.31a7 7 0 0 0-6.62 7.32l28.51-1.43a7 7 0 0 0-7.33-6.59z" fill="#ffba4f"></path><path d="M165 189.68a7 7 0 0 0 7.32 6.62h.31l13.94-.7h.32a7 7 0 0 0 6.62-7.32z" fill="#f7ad3a"></path><path d="M172.92 202h-.31l-13.94.7h-.31a7 7 0 0 0-6.62 7.32l28.5-1.44a7 7 0 0 0-7.32-6.58z" fill="#ffba4f"></path><path d="M151.74 210.05a7 7 0 0 0 7.32 6.62h.31l13.94-.7h.31a7 7 0 0 0 6.62-7.33z" fill="#f7ad3a"></path><path d="M174 222.73h-.31l-23.34 1.17h-.31a7 7 0 0 0-6.62 7.32l37.9-1.9a7 7 0 0 0-7.32-6.59z" fill="#ffba4f"></path><path d="M143.38 231.25a7 7 0 0 0 7.32 6.62h.3l23.34-1.18h.31a7 7 0 0 0 6.62-7.32z" fill="#f7ad3a"></path><path d="M191.58 23.52a28.37 28.37 0 0 0-40.33 2 29.88 29.88 0 0 0-7.53 21.22A29.4 29.4 0 0 0 153.33 67a28.08 28.08 0 0 0 40.33-2 28.79 28.79 0 0 0 7.53-21.09 29.32 29.32 0 0 0-9.61-20.39zm-1.62 38a23.19 23.19 0 0 1-33.29 1.67 24.2 24.2 0 0 1-7.93-16.71A24.62 24.62 0 0 1 155 29a23.41 23.41 0 0 1 33.29-1.68 24.2 24.2 0 0 1 7.94 16.81A23.79 23.79 0 0 1 190 61.55z" fill="#f5ab39"></path></g></g></svg>