<svg preserveAspectRatio="xMidYMid meet" data-bbox="26.574 26.574 146.834 146.928" viewBox="26.574 26.574 146.834 146.928" xmlns="http://www.w3.org/2000/svg" data-type="color" role="img"><g><path d="M154.178 79.435l-35.865-3.545-15.711-34.334a2.86 2.86 0 0 0-5.202 0L81.688 75.89l-35.865 3.545a2.858 2.858 0 0 0-2.409 1.876 2.858 2.858 0 0 0 .656 2.982l26.674 27.001-9.041 36.482a2.86 2.86 0 0 0 4.237 3.148l34.138-20.264 34.101 18.119a2.86 2.86 0 0 0 4.109-3.255l-9.01-34.25 26.654-26.982a2.858 2.858 0 0 0-1.754-4.857z" fill="#2F2D56" data-color="1"></path><path fill="#EDEDED" d="M142.235 84.004l-36.909 11.789 11.228-14.327 25.681 2.538z" data-color="2"></path><path fill="#EDEDED" d="M98.093 125.184l-25.236 14.981 25.236-34.79v19.809z" data-color="2"></path><path fill="#DADADA" d="M101.908 105.161l25.468 33.525-25.468-13.533v-19.992z" data-color="3"></path><path fill="#EDEDED" d="M113.516 79.158L101.908 93.97V53.791l11.608 25.367z" data-color="2"></path><path fill="#EDEDED" d="M98.093 53.791V93.97L86.485 79.158l11.608-25.367z" data-color="2"></path><path fill="#EDEDED" d="M83.448 81.466l11.227 14.327-36.909-11.789 25.682-2.538z" data-color="2"></path><path fill="#EDEDED" d="M54.871 87.085l39.616 12.653-19.181 8.033-20.435-20.686z" data-color="2"></path><path fill="#EDEDED" d="M76.624 111.355l17.836-7.471-24.28 33.472 6.444-26.001z" data-color="2"></path><path fill="#EDEDED" d="M129.725 135.471l-23.907-31.47 17.563 7.355 6.344 24.115z" data-color="2"></path><path opacity=".1" d="M142.235 84.004l-36.909 11.789 11.228-14.327 25.681 2.538z"></path><path opacity=".1" d="M98.093 53.791V93.97L86.485 79.158l11.608-25.367z"></path><path opacity=".1" d="M83.448 81.466l11.227 14.327-36.909-11.789 25.682-2.538z"></path><path opacity=".1" d="M76.624 111.355l17.836-7.471-24.28 33.472 6.444-26.001z"></path><path opacity=".1" d="M129.725 135.471l-23.907-31.47 17.563 7.355 6.344 24.115z"></path><path fill="#EDEDED" d="M124.696 107.771l-19.181-8.033 39.616-12.653-20.435 20.686z" data-color="2"></path><path d="M124.547 35.65a1.912 1.912 0 0 0 2.463-1.102l2.083-5.46a1.91 1.91 0 0 0-3.566-1.36l-2.083 5.46a1.909 1.909 0 0 0 1.103 2.462z" fill="#2F2D56" data-color="1"></path><path d="M75.453 164.351a1.906 1.906 0 0 0-2.462 1.102l-2.083 5.459a1.907 1.907 0 1 0 3.564 1.361l2.083-5.459a1.907 1.907 0 0 0-1.102-2.463z" fill="#2F2D56" data-color="1"></path><path d="M172.272 125.528l-5.459-2.083a1.903 1.903 0 0 0-2.462 1.102 1.907 1.907 0 0 0 1.102 2.462l5.459 2.083a1.91 1.91 0 0 0 1.36-3.564z" fill="#2F2D56" data-color="1"></path><path d="M33.868 76.681a1.91 1.91 0 0 0 .68-3.691l-5.46-2.083a1.91 1.91 0 0 0-1.36 3.566l5.46 2.083c.224.084.454.125.68.125z" fill="#2F2D56" data-color="1"></path><path d="M165.381 72.816l5.333-2.387c.961-.43 1.391-1.558.961-2.52a1.906 1.906 0 0 0-2.52-.961l-5.333 2.387c-.961.43-1.391 1.558-.961 2.52a1.908 1.908 0 0 0 2.52.961z" fill="#2F2D56" data-color="1"></path><path d="M34.62 127.183l-5.333 2.388c-.961.43-1.391 1.559-.961 2.52a1.909 1.909 0 0 0 2.521.961l5.333-2.388c.961-.43 1.391-1.559.961-2.52a1.906 1.906 0 0 0-2.521-.961z" fill="#2F2D56" data-color="1"></path><path d="M130.665 163.821c-.43-.961-1.56-1.392-2.52-.961-.961.43-1.391 1.559-.961 2.52l2.388 5.333a1.909 1.909 0 0 0 2.521.961c.961-.43 1.391-1.559.961-2.52l-2.389-5.333z" fill="#2F2D56" data-color="1"></path><path d="M69.335 36.178a1.909 1.909 0 0 0 2.521.961c.961-.43 1.391-1.559.961-2.52l-2.388-5.333a1.905 1.905 0 0 0-2.52-.961c-.961.43-1.391 1.559-.961 2.52l2.387 5.333z" fill="#2F2D56" data-color="1"></path></g></svg>