<svg preserveAspectRatio="xMidYMid meet" data-bbox="17.508 9.499 161.005 181.01" viewBox="17.508 9.499 161.005 181.01" xmlns="http://www.w3.org/2000/svg" data-name="Layer 1" data-type="color" role="img"><g><path fill="#82d5d6" d="M176.729 119.636c.013-1.858-.832-2.157-2.386-2.112-2.718.079-5.444-.068-8.159.054a3.67 3.67 0 0 1-3.731-1.923 48.141 48.141 0 0 0-8.08-10.211c-1.277-1.176-1.011-2.127-.374-3.383 3.9-7.679 3.627-15.275-.7-22.953-2.425 1.775-4.859 3.57-7.3 5.347-9.94 7.224-20.8 10.514-33.167 8.308a135.567 135.567 0 0 0-21.695-2.385c-17.3-.276-32.957 9.133-39.757 24.164-6.722 14.858-2.317 36.537 10.19 49.358a6.539 6.539 0 0 1 2 5.171c-.093 5.66.028 11.325-.065 16.986-.03 1.841.269 2.681 2.442 2.675q19.122-.051 38.244-.056c.922 0 2.367-13.539 3.289-13.539 1.844 0 3.164 13.539 5.008 13.54q18.681 0 37.362.053c2.173.006 2.508-.846 2.46-2.694-.1-4.026.219-8.077-.092-12.081-.424-5.458.107-10.335 5.277-13.536a3.383 3.383 0 0 0 1.311-1.434c3-7.219 8.388-9.732 15.9-8.222 1.579.317 2.024-.536 2.017-2.049-.052-9.695-.066-19.387.006-29.078z" data-color="1"></path><path fill="#243744" d="M143.674 113.033a4.28 4.28 0 0 1 4.376 4.07 4.2 4.2 0 1 1-8.4.272 4.115 4.115 0 0 1 4.024-4.342z" data-color="2"></path><path fill="#ffffff" d="M115.847 115.279v3.861a3.332 3.332 0 0 1-3.332 3.332H74.999a3.332 3.332 0 0 1-3.332-3.332v-3.861a3.332 3.332 0 0 1 3.332-3.332h37.516a3.332 3.332 0 0 1 3.332 3.332z" data-color="3"></path><path fill="#243744" d="M110.587 124.245H76.926a7.033 7.033 0 0 1-7.026-7.035 7.033 7.033 0 0 1 7.031-7.035h33.661a7.033 7.033 0 0 1 7.031 7.035 7.033 7.033 0 0 1-7.036 7.035zM76.926 113.72a3.488 3.488 0 0 0-3.488 3.49 3.489 3.489 0 0 0 3.488 3.49h33.661a3.489 3.489 0 0 0 3.488-3.49 3.488 3.488 0 0 0-3.488-3.49z" data-color="2"></path><path fill="#243744" d="M178.5 119.649a3.863 3.863 0 0 0-1.015-2.944 4.129 4.129 0 0 0-3.193-.953c-1.22.034-2.439.023-3.657.013-1.479-.013-3.007-.027-4.531.042a1.945 1.945 0 0 1-2.147-1.089 48.9 48.9 0 0 0-8.385-10.579 1.26 1.26 0 0 1-.334-.4 2.331 2.331 0 0 1 .34-.878c4.132-8.141 3.884-16.427-.735-24.626l-.979-1.737-3.978 2.915q-2.458 1.8-4.932 3.606c-10.163 7.387-20.573 10-31.814 8a135.21 135.21 0 0 0-21.977-2.414c-18.122-.248-34.344 9.606-41.4 25.207a36.75 36.75 0 0 0-2.818 9.911 11.753 11.753 0 0 0-4.5-3.573 8.81 8.81 0 0 0-7.48.44c-2.69 1.346-3.441 4.121-4.045 6.352-.592 2.187-1.04 3.56-2.266 4.173-1.055.522-3 .144-4.74-.925a6.637 6.637 0 0 1-2.466-2.489 1.943 1.943 0 0 0-1.768-1.018h-.114a2.06 2.06 0 0 0-1.837 2.988 10.7 10.7 0 0 0 3.972 4.1 11.511 11.511 0 0 0 5.8 1.789 6.737 6.737 0 0 0 3.033-.679c3-1.5 3.8-4.461 4.446-6.839.536-1.982.929-3.218 1.865-3.686a4.6 4.6 0 0 1 3.98-.319c2.267.936 4.027 3.761 5 5.82a2.117 2.117 0 0 0 .675.807c.146 12.382 5.084 25.535 13.8 34.469a4.773 4.773 0 0 1 1.5 3.9c-.046 2.848-.039 5.695-.033 8.544.007 2.814.013 5.628-.032 8.442a4.486 4.486 0 0 0 1 3.415 4.339 4.339 0 0 0 3.188 1.063h.028q19.119-.052 38.243-.055c1.946 0 2.223-1.584 3.385-8.237.086-.487.18-1.03.28-1.587.144.59.28 1.171.4 1.685 1.225 5.246 1.9 8.137 4.227 8.139q18.679 0 37.359.053a4.658 4.658 0 0 0 3.243-1.083 4.45 4.45 0 0 0 .991-3.429c-.04-1.594-.013-3.193.013-4.789.041-2.413.083-4.907-.109-7.384-.419-5.384.179-9.251 4.442-11.892a5.174 5.174 0 0 0 2.016-2.259c2.611-6.27 7.032-8.551 13.915-7.167a3.376 3.376 0 0 0 2.942-.573 4.083 4.083 0 0 0 1.194-3.222c-.057-11.262-.054-20.497.008-29.048zm-3.55 29.069c0 .109 0 .2-.007.28-8.53-1.675-14.508 1.452-17.773 9.3a1.69 1.69 0 0 1-.608.607c-6.13 3.8-6.529 9.8-6.112 15.181.18 2.312.141 4.612.1 7.049-.028 1.648-.055 3.3-.012 4.942a5.066 5.066 0 0 1-.029.829c-.118.022-.36.014-.656.047q-18.332-.05-36.664-.054a43.115 43.115 0 0 1-1.482-5.4c-.393-1.681-.729-3.117-1.081-4.3h9.021a2.105 2.105 0 0 0 0-4.21H96.506a2.1 2.1 0 0 0-2.1 2.1 2.061 2.061 0 0 0 2.1 2.105h8.394c-.238 1.134-.49 2.567-.81 4.393-.3 1.689-.708 4.055-1.022 5.3q-18.562 0-37.126.055a4.907 4.907 0 0 1-.635-.043 5.435 5.435 0 0 1-.031-.831c.046-2.837.04-5.673.033-8.51s-.014-5.651.033-8.476a8.265 8.265 0 0 0-2.5-6.438c-11.984-12.282-16.31-33.1-9.846-47.385C59.464 100.96 74.4 91.831 91.106 92.15a131.7 131.7 0 0 1 21.412 2.358c12.243 2.187 23.535-.635 34.518-8.619q2.481-1.8 4.944-3.616l.7-.516a20.86 20.86 0 0 1-.264 19.5 4.141 4.141 0 0 0 .755 5.489 45.564 45.564 0 0 1 7.773 9.842 5.43 5.43 0 0 0 5.315 2.758c1.428-.066 2.908-.053 4.341-.038 1.262.01 2.529.022 3.79-.015a4.571 4.571 0 0 1 .551.009 3 3 0 0 1 .012.319c-.053 8.571-.061 17.816-.003 29.097z" data-color="2"></path><path fill="#f9cf48" d="M112.574 31.27c0 11.045-8.948 19.998-19.986 19.998S72.602 42.315 72.602 31.27c0-11.045 8.948-19.998 19.986-19.998s19.986 8.953 19.986 19.998z" data-color="4"></path><path fill="#243744" d="M92.588 53.041a21.771 21.771 0 1 1 21.757-21.771 21.788 21.788 0 0 1-21.757 21.771zm0-40A18.226 18.226 0 1 0 110.8 31.27a18.241 18.241 0 0 0-18.212-18.226z" data-color="2"></path><path fill="#f9cf48" d="M137.819 56.531c0 11.045-8.948 19.998-19.986 19.998s-19.986-8.953-19.986-19.998c0-11.045 8.948-19.998 19.986-19.998s19.986 8.953 19.986 19.998z" data-color="4"></path><path fill="#243744" d="M117.833 78.3a21.771 21.771 0 1 1 21.757-21.769A21.788 21.788 0 0 1 117.833 78.3zm0-40a18.226 18.226 0 1 0 18.215 18.226 18.241 18.241 0 0 0-18.215-18.221z" data-color="2"></path><path fill="#f9cf48" d="M112.574 83.423c0 11.045-8.948 19.998-19.986 19.998s-19.986-8.953-19.986-19.998c0-11.045 8.948-19.998 19.986-19.998s19.986 8.953 19.986 19.998z" data-color="4"></path><path fill="#243744" d="M92.588 105.194a21.771 21.771 0 1 1 21.757-21.771 21.788 21.788 0 0 1-21.757 21.771zm0-40A18.226 18.226 0 1 0 110.8 83.423 18.24 18.24 0 0 0 92.588 65.2z" data-color="2"></path></g></svg>